<!DOCTYPE svg PUBLIC "-//W3C//DTD SVG 1.1//EN" "http://www.w3.org/Graphics/SVG/1.1/DTD/svg11.dtd">
<!-- Uploaded to: SVG Repo, www.svgrepo.com, Transformed by: SVG Repo Mixer Tools -->
<svg width="256px" height="256px" viewBox="-3.6 -3.6 27.20 27.20" xmlns="http://www.w3.org/2000/svg" fill="#ffffff" stroke="#ffffff" stroke-width="1.02">
<g id="SVGRepo_bgCarrier" stroke-width="0">
<path transform="translate(-3.6, -3.6), scale(1.6999999999999997)" fill="#1a5f62" d="M9.166.33a2.25 2.25 0 00-2.332 0l-5.25 3.182A2.25 2.25 0 00.5 5.436v5.128a2.25 2.25 0 001.084 1.924l5.25 3.182a2.25 2.25 0 002.332 0l5.25-3.182a2.25 2.25 0 001.084-1.924V5.436a2.25 2.25 0 00-1.084-1.924L9.166.33z" strokewidth="0"/>
</g>
<g id="SVGRepo_tracerCarrier" stroke-linecap="round" stroke-linejoin="round"/>
<g id="SVGRepo_iconCarrier">
<path fill-rule="evenodd" d="M9.131.233c-2.37 1.383-5.37 2.33-7.634 2.646-.822.115-1.495.79-1.494 1.62l.002.497c-.03 6.043.477 11.332 9.462 14.903a1.45 1.45 0 001.062 0C19.52 16.328 20.032 11.04 20 4.996v-.501c0-.828-.673-1.51-1.491-1.638-2.149-.337-5.282-1.274-7.65-2.628A1.733 1.733 0 009.13.233zm4.577 8.478a1 1 0 00-1.414-1.415L9.001 10.59 7.708 9.297a1 1 0 10-1.414 1.414l2 2.001a1 1 0 001.414 0l4-4.001z" fill="#1a5f62"/>
</g>
</svg>